<?xml version="1.0" encoding="utf-8"?>
<!-- Generator: Adobe Illustrator 19.0.0, SVG Export Plug-In . SVG Version: 6.00 Build 0)  -->
<svg version="1.1" id="Layer_1" xmlns="http://www.w3.org/2000/svg" xmlns:xlink="http://www.w3.org/1999/xlink" x="0px" y="0px"
	 viewBox="0 0 538.3 222.3" style="enable-background:new 0 0 538.3 222.3;" xml:space="preserve">
<style type="text/css">
	.st0{fill:#F7323F;}
	.st1{fill:#77787B;}
	.st2{fill:#99A4AE;}
</style>
<g>
	<g>
		<path class="st0" d="M21.9,38c0,1.4-0.5,2.4-1.4,3.1c-0.9,0.7-2.3,1.1-4,1.1h-1.6v5.3h-1.6V34.1h3.5C20.2,34.1,21.9,35.4,21.9,38z
			 M14.9,40.9h1.4c1.4,0,2.4-0.2,3-0.7c0.6-0.4,0.9-1.2,0.9-2.2c0-0.9-0.3-1.6-0.9-2c-0.6-0.4-1.5-0.7-2.7-0.7h-1.7V40.9z"/>
		<path class="st0" d="M35.9,47.6h-7.5V34.1h7.5v1.4H30v4.3h5.6v1.4H30v5h5.9V47.6z"/>
		<path class="st0" d="M52.7,47.6h-1.6V35.5h-6.9v12.1h-1.6V34.1h10V47.6z"/>
		<path class="st0" d="M61,47.7c-0.7,0-1.3-0.1-1.8-0.3v-1.5c0.6,0.3,1.2,0.4,1.7,0.4c0.7,0,1.2-0.2,1.6-0.5
			c0.4-0.3,0.8-0.9,1.2-1.7l-5.2-10h1.7l4,7.6c0.2,0.3,0.3,0.6,0.4,0.9h0.1c0.2-0.5,0.3-0.8,0.4-1l3.3-7.6H70l-4.3,9.6
			c-0.5,1.1-1,2-1.4,2.5c-0.4,0.5-0.9,0.9-1.4,1.1C62.4,47.6,61.8,47.7,61,47.7z"/>
		<path class="st0" d="M84.4,43.6c0,1.3-0.4,2.3-1.2,3c-0.8,0.6-2,1-3.6,1h-3.9V34.1h7.9v1.4h-6.4v4.4h2.1c1.2,0,2.1,0.1,2.9,0.4
			c0.7,0.3,1.3,0.7,1.6,1.2C84.2,42,84.4,42.7,84.4,43.6z M77.2,46.2h2.2c1.2,0,2-0.2,2.5-0.6c0.5-0.4,0.8-1.1,0.8-2
			c0-0.9-0.3-1.5-0.8-1.9c-0.5-0.4-1.5-0.6-2.8-0.6h-1.9V46.2z"/>
		<path class="st0" d="M100.5,47.6H99V35.5h-4.4l-0.3,2.2c-0.4,2.9-0.7,5.1-1,6.4c-0.3,1.4-0.7,2.3-1.1,2.8
			c-0.5,0.5-1.1,0.8-1.9,0.8c-0.5,0-0.9-0.1-1.2-0.2v-1.3c0.3,0.2,0.7,0.2,1,0.2c0.3,0,0.6-0.1,0.9-0.4c0.2-0.3,0.5-0.7,0.6-1.4
			c0.2-0.7,0.4-1.9,0.7-3.8c0.3-1.8,0.6-4.1,0.9-6.8h7.2V47.6z"/>
		<path class="st0" d="M108,34.1h1.5v7.5c0,1.4,0,2.6-0.1,3.7h0.1l7.5-11.2h1.7v13.4h-1.5v-7.4c0-1.2,0-2.5,0.2-3.9h-0.1l-7.6,11.3
			H108V34.1z"/>
		<path class="st0" d="M135.8,47.6h-1.9l-6.2-6.8v6.8h-1.6V34.1h1.6v6.5l6.1-6.5h1.8l-6,6.5L135.8,47.6z"/>
		<path class="st0" d="M149.9,47.6l-1.7-4.3h-5.4l-1.7,4.3h-1.6l5.3-13.5h1.3l5.3,13.5H149.9z M147.7,41.9l-1.6-4.2
			c-0.2-0.5-0.4-1.2-0.6-1.9c-0.1,0.6-0.3,1.2-0.6,1.9l-1.6,4.2H147.7z"/>
		<path class="st0" d="M171.5,35.3c-1.5,0-2.6,0.5-3.5,1.5c-0.9,1-1.3,2.3-1.3,4c0,1.8,0.4,3.1,1.2,4.1c0.8,1,2,1.4,3.5,1.4
			c0.9,0,2-0.2,3.2-0.5v1.4c-0.9,0.4-2.1,0.5-3.5,0.5c-2,0-3.5-0.6-4.6-1.8c-1.1-1.2-1.6-2.9-1.6-5.1c0-1.4,0.3-2.6,0.8-3.6
			c0.5-1,1.3-1.8,2.2-2.4c1-0.6,2.1-0.8,3.5-0.8c1.4,0,2.6,0.3,3.7,0.8l-0.7,1.3C173.6,35.5,172.6,35.3,171.5,35.3z"/>
		<path class="st0" d="M190,38c0,1.4-0.5,2.4-1.4,3.1c-0.9,0.7-2.3,1.1-4,1.1H183v5.3h-1.6V34.1h3.5C188.3,34.1,190,35.4,190,38z
			 M183,40.9h1.4c1.4,0,2.4-0.2,3-0.7c0.6-0.4,0.9-1.2,0.9-2.2c0-0.9-0.3-1.6-0.9-2c-0.6-0.4-1.5-0.7-2.7-0.7H183V40.9z"/>
		<path class="st0" d="M205.3,43.6c0,1.3-0.4,2.3-1.2,3c-0.8,0.6-2,1-3.6,1h-3.9V34.1h7.9v1.4h-6.4v4.4h2.1c1.2,0,2.1,0.1,2.9,0.4
			c0.7,0.3,1.3,0.7,1.6,1.2C205.1,42,205.3,42.7,205.3,43.6z M198.1,46.2h2.2c1.2,0,2-0.2,2.5-0.6c0.5-0.4,0.8-1.1,0.8-2
			c0-0.9-0.3-1.5-0.8-1.9c-0.5-0.4-1.5-0.6-2.8-0.6h-1.9V46.2z"/>
		<path class="st0" d="M211.9,34.1h1.5v7.5c0,1.4,0,2.6-0.1,3.7h0.1l7.5-11.2h1.7v13.4h-1.5v-7.4c0-1.2,0-2.5,0.2-3.9h-0.1
			l-7.6,11.3h-1.7V34.1z"/>
		<path class="st0" d="M228,51.1c-0.6,0-1-0.1-1.4-0.2v-1.3c0.4,0.1,0.9,0.2,1.4,0.2c0.6,0,1.1-0.2,1.4-0.6c0.3-0.4,0.5-0.9,0.5-1.6
			V34.1h1.6v13.3c0,1.2-0.3,2.1-0.9,2.7C230,50.8,229.1,51.1,228,51.1z"/>
		<path class="st0" d="M247.2,47.6l-1.7-4.3h-5.4l-1.7,4.3h-1.6l5.3-13.5h1.3l5.3,13.5H247.2z M245.1,41.9l-1.6-4.2
			c-0.2-0.5-0.4-1.2-0.6-1.9c-0.1,0.6-0.3,1.2-0.6,1.9l-1.6,4.2H245.1z"/>
	</g>
	<g>
		<path class="st0" d="M21.9,38c0,1.4-0.5,2.4-1.4,3.1c-0.9,0.7-2.3,1.1-4,1.1h-1.6v5.3h-1.6V34.1h3.5C20.2,34.1,21.9,35.4,21.9,38z
			 M14.9,40.9h1.4c1.4,0,2.4-0.2,3-0.7c0.6-0.4,0.9-1.2,0.9-2.2c0-0.9-0.3-1.6-0.9-2c-0.6-0.4-1.5-0.7-2.7-0.7h-1.7V40.9z"/>
		<path class="st0" d="M35.9,47.6h-7.5V34.1h7.5v1.4H30v4.3h5.6v1.4H30v5h5.9V47.6z"/>
		<path class="st0" d="M52.7,47.6h-1.6V35.5h-6.9v12.1h-1.6V34.1h10V47.6z"/>
		<path class="st0" d="M61,47.7c-0.7,0-1.3-0.1-1.8-0.3v-1.5c0.6,0.3,1.2,0.4,1.7,0.4c0.7,0,1.2-0.2,1.6-0.5
			c0.4-0.3,0.8-0.9,1.2-1.7l-5.2-10h1.7l4,7.6c0.2,0.3,0.3,0.6,0.4,0.9h0.1c0.2-0.5,0.3-0.8,0.4-1l3.3-7.6H70l-4.3,9.6
			c-0.5,1.1-1,2-1.4,2.5c-0.4,0.5-0.9,0.9-1.4,1.1C62.4,47.6,61.8,47.7,61,47.7z"/>
		<path class="st0" d="M84.4,43.6c0,1.3-0.4,2.3-1.2,3c-0.8,0.6-2,1-3.6,1h-3.9V34.1h7.9v1.4h-6.4v4.4h2.1c1.2,0,2.1,0.1,2.9,0.4
			c0.7,0.3,1.3,0.7,1.6,1.2C84.2,42,84.4,42.7,84.4,43.6z M77.2,46.2h2.2c1.2,0,2-0.2,2.5-0.6c0.5-0.4,0.8-1.1,0.8-2
			c0-0.9-0.3-1.5-0.8-1.9c-0.5-0.4-1.5-0.6-2.8-0.6h-1.9V46.2z"/>
		<path class="st0" d="M100.5,47.6H99V35.5h-4.4l-0.3,2.2c-0.4,2.9-0.7,5.1-1,6.4c-0.3,1.4-0.7,2.3-1.1,2.8
			c-0.5,0.5-1.1,0.8-1.9,0.8c-0.5,0-0.9-0.1-1.2-0.2v-1.3c0.3,0.2,0.7,0.2,1,0.2c0.3,0,0.6-0.1,0.9-0.4c0.2-0.3,0.5-0.7,0.6-1.4
			c0.2-0.7,0.4-1.9,0.7-3.8c0.3-1.8,0.6-4.1,0.9-6.8h7.2V47.6z"/>
		<path class="st0" d="M108,34.1h1.5v7.5c0,1.4,0,2.6-0.1,3.7h0.1l7.5-11.2h1.7v13.4h-1.5v-7.4c0-1.2,0-2.5,0.2-3.9h-0.1l-7.6,11.3
			H108V34.1z"/>
		<path class="st0" d="M135.8,47.6h-1.9l-6.2-6.8v6.8h-1.6V34.1h1.6v6.5l6.1-6.5h1.8l-6,6.5L135.8,47.6z"/>
		<path class="st0" d="M149.9,47.6l-1.7-4.3h-5.4l-1.7,4.3h-1.6l5.3-13.5h1.3l5.3,13.5H149.9z M147.7,41.9l-1.6-4.2
			c-0.2-0.5-0.4-1.2-0.6-1.9c-0.1,0.6-0.3,1.2-0.6,1.9l-1.6,4.2H147.7z"/>
		<path class="st0" d="M171.5,35.3c-1.5,0-2.6,0.5-3.5,1.5c-0.9,1-1.3,2.3-1.3,4c0,1.8,0.4,3.1,1.2,4.1c0.8,1,2,1.4,3.5,1.4
			c0.9,0,2-0.2,3.2-0.5v1.4c-0.9,0.4-2.1,0.5-3.5,0.5c-2,0-3.5-0.6-4.6-1.8c-1.1-1.2-1.6-2.9-1.6-5.1c0-1.4,0.3-2.6,0.8-3.6
			c0.5-1,1.3-1.8,2.2-2.4c1-0.6,2.1-0.8,3.5-0.8c1.4,0,2.6,0.3,3.7,0.8l-0.7,1.3C173.6,35.5,172.6,35.3,171.5,35.3z"/>
		<path class="st0" d="M190,38c0,1.4-0.5,2.4-1.4,3.1c-0.9,0.7-2.3,1.1-4,1.1H183v5.3h-1.6V34.1h3.5C188.3,34.1,190,35.4,190,38z
			 M183,40.9h1.4c1.4,0,2.4-0.2,3-0.7c0.6-0.4,0.9-1.2,0.9-2.2c0-0.9-0.3-1.6-0.9-2c-0.6-0.4-1.5-0.7-2.7-0.7H183V40.9z"/>
		<path class="st0" d="M205.3,43.6c0,1.3-0.4,2.3-1.2,3c-0.8,0.6-2,1-3.6,1h-3.9V34.1h7.9v1.4h-6.4v4.4h2.1c1.2,0,2.1,0.1,2.9,0.4
			c0.7,0.3,1.3,0.7,1.6,1.2C205.1,42,205.3,42.7,205.3,43.6z M198.1,46.2h2.2c1.2,0,2-0.2,2.5-0.6c0.5-0.4,0.8-1.1,0.8-2
			c0-0.9-0.3-1.5-0.8-1.9c-0.5-0.4-1.5-0.6-2.8-0.6h-1.9V46.2z"/>
		<path class="st0" d="M211.9,34.1h1.5v7.5c0,1.4,0,2.6-0.1,3.7h0.1l7.5-11.2h1.7v13.4h-1.5v-7.4c0-1.2,0-2.5,0.2-3.9h-0.1
			l-7.6,11.3h-1.7V34.1z"/>
		<path class="st0" d="M228,51.1c-0.6,0-1-0.1-1.4-0.2v-1.3c0.4,0.1,0.9,0.2,1.4,0.2c0.6,0,1.1-0.2,1.4-0.6c0.3-0.4,0.5-0.9,0.5-1.6
			V34.1h1.6v13.3c0,1.2-0.3,2.1-0.9,2.7C230,50.8,229.1,51.1,228,51.1z"/>
		<path class="st0" d="M247.2,47.6l-1.7-4.3h-5.4l-1.7,4.3h-1.6l5.3-13.5h1.3l5.3,13.5H247.2z M245.1,41.9l-1.6-4.2
			c-0.2-0.5-0.4-1.2-0.6-1.9c-0.1,0.6-0.3,1.2-0.6,1.9l-1.6,4.2H245.1z"/>
	</g>
	<g>
		<path class="st1" d="M101.8,88.8v-3.7h-0.4c-2,0-3.8-0.4-5.3-1.1c-1.5-0.7-2.7-1.8-3.6-3.2c-0.9-1.4-1.3-3-1.3-4.8
			c0-1.7,0.4-3.2,1.2-4.6c0.8-1.4,1.9-2.4,3.4-3.2c1.5-0.8,3.2-1.2,5.2-1.2h0.9v-2.9h4.6v2.9h0.9c2,0,3.7,0.4,5.2,1.2
			c1.5,0.8,2.6,1.8,3.4,3.2c0.8,1.4,1.2,2.9,1.2,4.6c0,1.7-0.4,3.3-1.3,4.8c-0.9,1.4-2.1,2.5-3.6,3.2c-1.5,0.7-3.3,1.1-5.3,1.1h-0.4
			v3.7H101.8z M101.8,71.2h-0.7c-1.6,0-2.9,0.4-3.8,1.3c-0.9,0.9-1.4,2.1-1.4,3.6c0,1.6,0.5,2.8,1.5,3.8c1,0.9,2.4,1.4,4.2,1.4h0.2
			V71.2z M106.3,81.3h0.2c1.8,0,3.1-0.5,4.1-1.4c1-0.9,1.5-2.2,1.5-3.8c0-1.5-0.5-2.7-1.4-3.6c-0.9-0.9-2.2-1.3-3.8-1.3h-0.7V81.3z"
			/>
		<path class="st1" d="M143,76.5c0,4-1,7-2.9,9.1c-2,2.1-4.8,3.2-8.4,3.2c-3.7,0-6.5-1.1-8.4-3.2c-2-2.1-2.9-5.2-2.9-9.2
			c0-4,1-7,3-9.1c2-2.1,4.8-3.2,8.5-3.2c3.7,0,6.5,1.1,8.4,3.2C142,69.5,143,72.6,143,76.5z M125.5,76.5c0,2.7,0.5,4.7,1.5,6
			c1,1.4,2.5,2,4.5,2c4,0,6.1-2.7,6.1-8.1c0-5.4-2-8.1-6-8.1c-2,0-3.5,0.7-4.6,2C126.1,71.8,125.5,73.9,125.5,76.5z"/>
		<path class="st1" d="M167.4,88.5h-5.1V78.2h-9.5v10.3h-5.1V64.6h5.1V74h9.5v-9.4h5.1V88.5z"/>
		<path class="st1" d="M170.4,84.3h1.8c1.6-3.2,2.8-6.3,3.7-9.5c0.9-3.2,1.6-6.6,2-10.2H192v19.7h3.2v11.2h-4.9v-7h-15v7h-4.9V84.3z
			 M182.1,68.8c-0.3,2.5-0.9,5.1-1.7,7.9c-0.8,2.8-1.7,5.3-2.7,7.5h9.3V68.8H182.1z"/>
		<path class="st1" d="M223.7,70.2c0,1.5-0.6,2.8-1.6,3.8c-1.1,1-2.6,1.6-4.4,1.9V76c2.2,0.2,3.9,0.8,5,1.8c1.2,1,1.8,2.3,1.8,3.9
			c0,2.2-0.9,3.9-2.7,5.2c-1.8,1.3-4.3,1.9-7.4,1.9c-3.5,0-6.3-0.4-8.5-1.3v-4.3c1,0.5,2.2,0.9,3.6,1.2c1.4,0.3,2.7,0.4,3.9,0.4
			c4,0,6-1.2,6-3.5c0-1.1-0.6-1.9-1.9-2.4c-1.3-0.6-3.2-0.9-5.7-0.9h-2.2v-4h2c2.5,0,4.4-0.2,5.5-0.7c1.2-0.5,1.7-1.3,1.7-2.4
			c0-0.8-0.4-1.5-1.1-2c-0.7-0.5-1.8-0.7-3.3-0.7c-2.2,0-4.4,0.7-6.5,1.9l-2.2-3.4c1.4-0.9,2.8-1.6,4.3-2c1.5-0.4,3.2-0.6,5.1-0.6
			c2.6,0,4.7,0.6,6.2,1.6C223,67,223.7,68.4,223.7,70.2z"/>
		<path class="st1" d="M243.4,88.5l-1.7-5.7h-8.7l-1.7,5.7h-5.5l8.4-24h6.2l8.5,24H243.4z M240.4,78.6c-1.6-5.2-2.5-8.1-2.7-8.7
			c-0.2-0.7-0.3-1.2-0.4-1.6c-0.4,1.4-1.4,4.8-3.1,10.4H240.4z"/>
		<path class="st1" d="M0,101.8h4.6v11.6l-0.1,3.1L4.3,120h0.1l11-18.2h6.1v23.9H17v-11.5c0-1.5,0.1-3.8,0.3-6.8h-0.1L6.1,125.7H0
			V101.8z"/>
		<path class="st1" d="M47,125.7H42v-10.3h-9.5v10.3h-5.1v-23.9h5.1v9.4H42v-9.4H47V125.7z"/>
		<path class="st1" d="M74.6,113.8c0,4-1,7-2.9,9.1c-2,2.1-4.8,3.2-8.4,3.2c-3.7,0-6.5-1.1-8.4-3.2c-2-2.1-2.9-5.2-2.9-9.2
			c0-4,1-7,3-9.1c2-2.1,4.8-3.1,8.5-3.1c3.7,0,6.5,1.1,8.4,3.2C73.6,106.7,74.6,109.8,74.6,113.8z M57.1,113.8c0,2.7,0.5,4.7,1.5,6
			c1,1.4,2.5,2,4.5,2c4,0,6.1-2.7,6.1-8.1c0-5.4-2-8.1-6-8.1c-2,0-3.5,0.7-4.6,2C57.6,109.1,57.1,111.1,57.1,113.8z"/>
		<path class="st1" d="M79.4,101.8h7.4c3.4,0,5.9,0.5,7.4,1.4c1.5,1,2.3,2.5,2.3,4.6c0,1.4-0.3,2.6-1,3.5c-0.7,0.9-1.6,1.5-2.7,1.7
			v0.2c1.5,0.3,2.6,1,3.3,1.9c0.7,0.9,1,2.2,1,3.7c0,2.2-0.8,3.9-2.4,5.1c-1.6,1.2-3.7,1.8-6.4,1.8h-8.9V101.8z M84.4,111.3h2.9
			c1.4,0,2.4-0.2,3-0.6c0.6-0.4,0.9-1.1,0.9-2.1c0-0.9-0.3-1.6-1-2c-0.7-0.4-1.7-0.6-3.2-0.6h-2.7V111.3z M84.4,115.3v6.2h3.3
			c1.4,0,2.4-0.3,3.1-0.8c0.7-0.5,1-1.4,1-2.5c0-2-1.4-3-4.2-3H84.4z"/>
		<path class="st1" d="M116.3,125.7l-1.7-5.7h-8.7l-1.7,5.7h-5.5l8.4-24h6.2l8.5,24H116.3z M113.4,115.8c-1.6-5.2-2.5-8.1-2.7-8.8
			c-0.2-0.7-0.4-1.2-0.4-1.6c-0.4,1.4-1.4,4.8-3.1,10.4H113.4z"/>
		<path class="st1" d="M143.6,121.7h3.6v11h-4.9v-7h-17.6v-23.9h5.1v19.7h8.8v-19.7h5.1V121.7z"/>
		<path class="st1" d="M150.6,101.8h4.6v11.6l-0.1,3.1L155,120h0.1l11-18.2h6.1v23.9h-4.5v-11.5c0-1.5,0.1-3.8,0.3-6.8h-0.1
			l-11.1,18.3h-6.1V101.8z"/>
		<path class="st1" d="M199.7,113.8c0,4-1,7-2.9,9.1c-2,2.1-4.8,3.2-8.4,3.2c-3.7,0-6.5-1.1-8.4-3.2c-2-2.1-2.9-5.2-2.9-9.2
			c0-4,1-7,3-9.1c2-2.1,4.8-3.1,8.5-3.1c3.7,0,6.5,1.1,8.4,3.2C198.8,106.7,199.7,109.8,199.7,113.8z M182.3,113.8
			c0,2.7,0.5,4.7,1.5,6c1,1.4,2.5,2,4.5,2c4,0,6.1-2.7,6.1-8.1c0-5.4-2-8.1-6-8.1c-2,0-3.5,0.7-4.6,2
			C182.8,109.1,182.3,111.1,182.3,113.8z"/>
		<path class="st1" d="M224.1,125.7h-5.1v-10.3h-9.5v10.3h-5.1v-23.9h5.1v9.4h9.5v-9.4h5.1V125.7z"/>
		<path class="st1" d="M248.9,101.8l-7.4,16.9c-0.9,2.1-1.8,3.7-2.6,4.6c-0.8,0.9-1.8,1.6-2.9,2.1c-1.1,0.5-2.5,0.7-4.1,0.7
			c-1.4,0-2.6-0.2-3.8-0.5v-4.3c1,0.4,2.2,0.6,3.6,0.6c0.9,0,1.6-0.2,2.2-0.6c0.6-0.4,1-1.1,1.4-2.2l-8.3-17.2h5.4l5.9,13.3h0.2
			l0.3-0.8l4.9-12.5H248.9z"/>
		<path class="st1" d="M45.5,158.8h1.8c1.6-3.2,2.8-6.3,3.8-9.5c0.9-3.2,1.6-6.6,2-10.2h13.9v19.7h3.2v11.2h-4.9v-7h-15v7h-4.9
			V158.8z M57.2,143.3c-0.4,2.5-0.9,5.1-1.7,7.9c-0.8,2.8-1.7,5.3-2.7,7.5H62v-15.5H57.2z"/>
		<path class="st1" d="M87.5,163H73.8v-23.9h13.8v4.2h-8.7v5.3h8.1v4.2h-8.1v6.2h8.7V163z"/>
		<path class="st1" d="M111.3,163h-5.1v-19.7h-5.9l-0.3,2.2c-0.7,5.6-1.3,9.5-1.8,11.7c-0.5,2.3-1.3,3.8-2.3,4.8
			c-1,0.9-2.3,1.4-4,1.3c-0.9,0-1.7-0.1-2.4-0.4v-4.2c0.6,0.2,1.2,0.3,1.8,0.3c0.6,0,1-0.3,1.4-0.8c0.3-0.5,0.7-1.5,1-2.9
			c0.3-1.4,0.7-3.8,1.2-7c0.5-3.3,0.9-6.4,1.3-9.3h15.1V163z"/>
		<path class="st1" d="M131.8,163l-1.7-5.7h-8.7l-1.7,5.7h-5.5l8.4-24h6.2l8.5,24H131.8z M128.9,153c-1.6-5.2-2.5-8.1-2.7-8.7
			c-0.2-0.7-0.3-1.2-0.4-1.6c-0.4,1.4-1.4,4.8-3.1,10.4H128.9z"/>
		<path class="st1" d="M149.3,163h-5.1v-19.7h-6.5v-4.2h18.1v4.2h-6.5V163z"/>
		<path class="st1" d="M178.9,163h-5.1v-10.3h-9.5V163h-5.1v-23.9h5.1v9.4h9.5v-9.4h5.1V163z"/>
		<path class="st1" d="M206.5,151c0,4-1,7-2.9,9.1c-2,2.1-4.8,3.2-8.4,3.2c-3.7,0-6.5-1.1-8.4-3.2c-2-2.1-2.9-5.2-2.9-9.2
			c0-4,1-7,3-9.1c2-2.1,4.8-3.1,8.5-3.1c3.7,0,6.5,1.1,8.4,3.2C205.5,144,206.5,147,206.5,151z M189,151c0,2.7,0.5,4.7,1.5,6
			c1,1.4,2.5,2,4.5,2c4,0,6.1-2.7,6.1-8.1c0-5.4-2-8.1-6-8.1c-2,0-3.5,0.7-4.6,2C189.6,146.3,189,148.3,189,151z"/>
		<path class="st1" d="M221.4,142.9c-1.9,0-3.4,0.7-4.4,2.2c-1,1.4-1.6,3.4-1.6,6c0,5.3,2,8,6,8c1.7,0,3.7-0.4,6.1-1.3v4.3
			c-2,0.8-4.2,1.2-6.6,1.2c-3.5,0-6.1-1.1-8-3.2c-1.8-2.1-2.8-5.1-2.8-9.1c0-2.5,0.5-4.7,1.4-6.5c0.9-1.9,2.2-3.3,3.9-4.3
			c1.7-1,3.7-1.5,6-1.5c2.3,0,4.7,0.6,7,1.7l-1.6,4.1c-0.9-0.4-1.8-0.8-2.7-1.1C223.2,143.1,222.3,142.9,221.4,142.9z"/>
		<path class="st1" d="M241.7,163h-5.1v-19.7h-6.5v-4.2h18.1v4.2h-6.5V163z"/>
	</g>
	<path class="st2" d="M538.3,85.6L538.3,85.6c0-0.1,0-0.1,0-0.1c0,0,0-0.1,0-0.1h0c-1.7-19.3-19-33.2-38.8-32
		c-18.5,1.2-30.1,18.3-42,24.3c-1.1-20.4,0.7-42.2,1.5-52c0.4-5.1,0.2-5.5-0.2-7.9c-0.8-4.7-2.7-6.8-3.8-8.5
		c-4-6.6-12.6-9.8-20.8-9.1L310.7,27.6c-14.4,3.2-19.7,9.5-20.7,22.6l-6.9,128.3c0,9.8,6.2,14.2,12.8,14.7c1,0.1,46.9-1.7,64.3-2.9
		c-1.4-24.1-24.7-29.9-25.3-57.5c-0.5-23.9,18.7-43.3,41.9-43.6l0,0c0.1,0,0.1,0,0.2,0c0.1,0,0.1,0,0.2,0v0
		c23.2,0.1,41.7,19.4,42.2,43.3c0.5,25.2-22.7,36.9-24.8,56.1c29.4-1.8,45.9-1.7,62-3.1c6-0.5,14-6.7,12.8-16.2
		c-2.5-20.1-7.6-39.2-9.3-61.9c13,3.8,26.3,17.6,45,15.7C524.8,121.4,539.7,104.8,538.3,85.6z"/>
	<path class="st0" d="M394.7,195.4c-0.1-0.4-0.2-0.6-0.2-0.6l-28.5,1.2c-1.5,0.1-2.7,1.3-2.6,2.9c0.1,1.4,1.1,2.5,2.5,2.6
		c0,0,1.6-0.1,1.6-0.1c1.5-0.1,2.8,1.1,2.8,2.6c0.1,1.5-1.1,2.8-2.6,2.8l-1.6,0.1c0,0-0.7,0-1.1,0.2c-1,0.4-1.6,1.4-1.5,2.6
		c0,0.9,0.6,1.7,1.3,2.2c0.8,0.5,2.8,0.3,2.8,0.3c1.5-0.1,2.8,1.1,2.8,2.7c0,1-0.5,1.9-1.3,2.5c-0.8,0.5-0.2,1.3,0.3,1.7
		c3,2.1,6.8,3.4,11,3.3c6.7-0.1,11.9-4.3,14.9-9.4c0-0.1,0.8-2.2,0.7-4.1C395.7,204.4,394.7,195.4,394.7,195.4z"/>
</g>
</svg>
